<?xml version="1.0" standalone="no"?><!DOCTYPE svg PUBLIC "-//W3C//DTD SVG 1.1//EN" "http://www.w3.org/Graphics/SVG/1.1/DTD/svg11.dtd"><svg t="1608604313678" class="icon" viewBox="0 0 1024 1024" version="1.1" xmlns="http://www.w3.org/2000/svg" p-id="7549" xmlns:xlink="http://www.w3.org/1999/xlink" width="200" height="200"><defs><style type="text/css"></style></defs><path d="M512 128C300 128 128 300 128 512c0 212.2 172 384 384 384s384-171.8 384-384c0-212-172-384-384-384z m243.8 177c43.2 50.8 70.6 115.2 75.4 185.8-69.2-3.6-152-3.6-218.4 2.6-8.4-21.2-17-42-26.4-62 76.6-33.2 135.6-76.8 169.4-126.4zM512 192c77.6 0 148.8 27.6 204.2 73.6-34.8 44-89.4 82.2-157.4 111.2-37.2-68.8-80-128-125.6-174.6 25.4-6.4 51.6-10.2 78.8-10.2z m-144.8 35c46.2 46 89.6 104.6 127.6 173.2-72.2 22-155 34.6-243.4 34.6-16.8 0-33.2-0.6-49.4-1.6 23-90.2 84-165 165.2-206.2zM192.6 496.8c18.2 0.8 36.6 1.2 55.2 1 100.8-1.2 194.6-17 275.2-42.8 7.6 15.8 14.8 32 21.6 48.6-11 2.6-20.8 5.4-28.6 8.6-110.2 46.2-197 120.8-244 211-49.6-56.4-80-130.2-80-211.2 0-5.2 0.2-10.2 0.6-15.2zM512 832c-74 0-142-25.2-196.2-67.4 42.6-84.4 118.6-154.2 214.4-197.6 9-4.2 21-7.6 34.8-10.6 11.4 31.6 21.6 64.4 30.6 98.4 13.8 53 23.6 105.4 29.6 156.2C590 824.4 552 832 512 832z m173-51c-6-51.4-15.8-104.2-29.8-157.8-6.8-26-14.6-51.2-23-75.8 62.8-5.2 138-4.4 197.8 0-10.8 98.2-66 182.6-145 233.6z" p-id="7550" fill="#1890ff"></path></svg>